Coordinates
version=1
nRows=29
nColumns=24
inDegrees=yes

Units are S.I. units (second, meters, Newtons, ...)
Angles are in degrees.

endheader
time	pelvis_tilt	pelvis_list	pelvis_rotation	pelvis_tx	pelvis_ty	pelvis_tz	hip_flexion_r	hip_adduction_r	hip_rotation_r	knee_angle_r	ankle_angle_r	subtalar_angle_r	mtp_angle_r	hip_flexion_l	hip_adduction_l	hip_rotation_l	knee_angle_l	ankle_angle_l	subtalar_angle_l	mtp_angle_l	lumbar_extension	lumbar_bending	lumbar_rotation
      1.28300000	     -0.79106272	      4.23723536	     -2.77523437	      0.32836301	      0.90805454	      0.30121297	     14.90428784	     -8.31062183	     -9.07263131	    -72.93249482	     -1.68897730	      1.35303848	      7.12145759	     12.37778740	      7.21743771	     -2.27558064	    -19.68369724	     10.20307764	     -7.21009649	      1.29282705	     -5.70876723	     -6.67484101	      3.10981076
      1.28716667	     -0.77137483	      4.01876518	     -2.65659531	      0.33337275	      0.90933109	      0.30094985	     15.52036996	     -8.07677988	     -9.30828097	    -72.69285917	     -1.27721664	      1.51920822	      7.07922207	     11.70840804	      7.04654116	     -2.06806763	    -19.12355347	     10.21886774	     -7.17212383	      1.28469068	     -5.78455881	     -6.40745528	      2.86913319
      1.29133333	     -0.74436424	      3.79838575	     -2.53303261	      0.33837890	      0.91059430	      0.30068415	     16.11090916	     -7.84080129	     -9.54607079	    -72.38343478	     -0.88769277	      1.70662692	      7.04373271	     11.02579787	      6.87110380	     -1.85678752	    -18.54689945	     10.22558243	     -7.13718564	      1.27711062	     -5.86686308	     -6.14275028	      2.60895447
      1.29550000	     -0.68656255	      3.59209505	     -2.40652033	      0.34340652	      0.91187212	      0.30040173	     16.64884172	     -7.63017250	     -9.79274487	    -72.00933901	     -0.51954493	      1.95304574	      6.98835776	     10.29075822	      6.71615787	     -1.61636273	    -17.92886516	     10.24443289	     -7.16267665	      1.26469449	     -5.97463823	     -5.90951464	      2.24069306
      1.29966667	     -0.64065833	      3.35704529	     -2.26456646	      0.34840512	      0.91311014	      0.30012134	     17.17603950	     -7.38152912	    -10.05221540	    -71.55723074	     -0.14715298	      2.18898598	      6.95075633	      9.58528308	      6.51910617	     -1.39832232	    -17.33911672	     10.23612098	     -7.13830425	      1.25501819	     -6.07748089	     -5.62299658	      1.97675910
      1.30383333	     -0.57899150	      3.12689803	     -2.12135900	      0.35339777	      0.91432998	      0.29983256	     17.67086288	     -7.14195609	    -10.31404213	    -71.04539890	      0.21591608	      2.44566735	      6.91673226	      8.86039424	      6.32450710	     -1.18585856	    -16.73767948	     10.21558516	     -7.11322979	      1.24465750	     -6.20069028	     -5.34049395	      1.68568446
      1.30800000	     -0.54062519	      2.86656246	     -1.96447583	      0.35836385	      0.91549275	      0.29954958	     18.16676297	     -6.86173242	    -10.58692764	    -70.45304668	      0.56502821	      2.69461301	      6.90932352	      8.18530481	      6.08398976	     -1.00829500	    -16.18084627	     10.17782667	     -7.03051761	      1.24042620	     -6.29386925	     -5.01216314	      1.50820171
      1.31216667	     -0.42359594	      2.64508609	     -1.81996442	      0.36336149	      0.91670558	      0.29924942	     18.56554557	     -6.64322313	    -10.85713293	    -69.81706609	      0.89939857	      3.00163690	      6.89353245	      7.38439196	      5.89526293	     -0.78528462	    -15.53805844	     10.19502585	     -7.01773748	      1.23494521	     -6.48089939	     -4.74578590	      1.15165603
      1.31633333	     -0.35139041	      2.38744162	     -1.65825048	      0.36830328	      0.91782514	      0.29897317	     18.99125082	     -6.36716192	    -11.12949974	    -69.10144204	      1.22295597	      3.28968013	      6.88818194	      6.66843215	      5.65191463	     -0.58837161	    -14.95986185	     10.16184226	     -6.96007862	      1.23163317	     -6.62975907	     -4.44183754	      0.91675787
      1.32050000	     -0.23218362	      2.16476161	     -1.50353610	      0.37328598	      0.91894597	      0.29866118	     19.35127305	     -6.15103475	    -11.41292094	    -68.34223763	      1.54002037	      3.57481607	      6.87979841	      5.87577986	      5.45046688	     -0.38716137	    -14.32427275	     10.14460834	     -6.93796048	      1.22921850	     -6.80680164	     -4.14626534	      0.58949602
      1.32466667	     -0.12581504	      1.92524939	     -1.34214549	      0.37824208	      0.92000445	      0.29837200	     19.70553632	     -5.90625701	    -11.69458526	    -67.51279286	      1.84060669	      3.85546358	      6.87507673	      5.11485707	      5.22005569	     -0.20015884	    -13.71941553	     10.12004562	     -6.89510455	      1.22905413	     -6.97912146	     -3.84890368	      0.32256816
      1.32883333	     -0.00988015	      1.68879689	     -1.17902531	      0.38318599	      0.92101859	      0.29808002	     20.03372162	     -5.66600562	    -11.97645619	    -66.62691525	      2.12376863	      4.12354477	      6.87282222	      4.34954706	      4.98806719	     -0.02472380	    -13.12014616	     10.09947090	     -6.84239439	      1.23106497	     -7.16394924	     -3.54651534	      0.06426777
      1.33300000	      0.11445568	      1.45826680	     -1.01798842	      0.38811934	      0.92198328	      0.29780457	     20.33728735	     -5.42951366	    -12.25474564	    -65.68504712	      2.39350601	      4.36917725	      6.87058105	      3.57782945	      4.75623523	      0.14136348	    -12.51945354	     10.07651620	     -6.78756237	      1.23572033	     -7.35501086	     -3.25394796	     -0.20413029
      1.33716667	      0.22101274	      1.22237674	     -0.84851918	      0.39304190	      0.92286687	      0.29754204	     20.63931665	     -5.18133119	    -12.53314586	    -64.67850583	      2.64843549	      4.59799722	      6.87046529	      2.84731644	      4.50878491	      0.28500991	    -11.95950113	     10.04353071	     -6.71359411	      1.24108362	     -7.51864752	     -2.97141609	     -0.42148761
      1.34133333	      0.36903139	      1.02104418	     -0.69664835	      0.39797302	      0.92372400	      0.29727597	     20.89207789	     -4.97712271	    -12.79694025	    -63.64328464	      2.87914169	      4.78961231	      6.86661938	      2.04389670	      4.30149148	      0.44790837	    -11.33620328	     10.03851831	     -6.66291363	      1.25264404	     -7.74534698	     -2.69671040	     -0.71878704
      1.34550000	      0.48414979	      0.79987553	     -0.52491820	      0.40288281	      0.92448839	      0.29702547	     21.15204511	     -4.74334829	    -13.07296789	    -62.52900994	      3.09954660	      4.96651850	      6.86438759	      1.31448568	      4.05952951	      0.57884899	    -10.78553374	     10.01167946	     -6.58493876	      1.26312369	     -7.91710656	     -2.41770596	     -0.93973537
      1.34966667	      0.62570172	      0.61658743	     -0.37537117	      0.40780131	      0.92519264	      0.29678102	     21.38328314	     -4.55121445	    -13.32277841	    -61.39438494	      3.28280332	      5.08537035	      6.85882242	      0.53429042	      3.86083115	      0.72025235	    -10.18994993	     10.02021389	     -6.51642363	      1.28015311	     -8.12904579	     -2.17053442	     -1.21372224
      1.35383333	      0.72359649	      0.41710674	     -0.20633226	      0.41269307	      0.92578516	      0.29655405	     21.63538101	     -4.33408497	    -13.58218153	    -60.18598093	      3.46842635	      5.19443100	      6.85502402	     -0.15627099	      3.63146126	      0.82614542	     -9.67247463	      9.99364266	     -6.42628789	      1.29318590	     -8.28097568	     -1.91502693	     -1.41326883
      1.35800000	      0.87101875	      0.25618599	     -0.06082212	      0.41760599	      0.92635165	      0.29633894	     21.83011325	     -4.15719543	    -13.81439834	    -58.95497776	      3.60031589	      5.23307867	      6.84626350	     -0.93395046	      3.44693486	      0.95122098	     -9.08951237	     10.02275482	     -6.34729206	      1.31572339	     -8.49900721	     -1.69574381	     -1.69373540
      1.36216667	      0.96556251	      0.08379208	      0.10212464	      0.42249542	      0.92678912	      0.29613093	     22.05774047	     -3.96157261	    -14.05155013	    -57.65642751	      3.73836376	      5.26338221	      6.83927755	     -1.61162520	      3.23981931	      1.04451119	     -8.58740256	     10.01033159	     -6.25143863	      1.33395076	     -8.64353316	     -1.46745291	     -1.89602604
      1.36633333	      1.07520766	     -0.06754050	      0.25506056	      0.42739875	      0.92716759	      0.29594620	     22.25661910	     -3.78402547	    -14.27275770	    -56.32105578	      3.84263071	      5.24395327	      6.82994271	     -2.31779837	      3.05218318	      1.13782753	     -8.05986738	     10.02521644	     -6.14494335	      1.35479337	     -8.81008673	     -1.26221441	     -2.12560185
      1.37050000	      1.19458471	     -0.19009516	      0.39191403	      0.43229974	      0.92747085	      0.29578383	     22.44053681	     -3.63048723	    -14.46559407	    -54.95900658	      3.90148122	      5.16218517	      6.81556446	     -3.04194749	      2.89606209	      1.23630491	     -7.51978633	     10.06792258	     -6.05285143	      1.38758255	     -8.99426489	     -1.09352463	     -2.39754322
      1.37466667	      1.26974837	     -0.32204019	      0.54534163	      0.43720244	      0.92765737	      0.29561607	     22.64462514	     -3.46507825	    -14.66832747	    -53.53480528	      3.97355343	      5.09092808	      6.80368981	     -3.68367869	      2.72171777	      1.30355530	     -7.04723030	     10.07383463	     -5.94090727	      1.41201352	     -9.11208169	     -0.90736287	     -2.59064164
      1.37883333	      1.36897879	     -0.41883451	      0.67370687	      0.44211678	      0.92778372	      0.29549065	     22.82011692	     -3.32564285	    -14.83003937	    -52.09134053	      3.98768781	      4.93927376	      6.78514958	     -4.37652271	      2.58600201	      1.38268326	     -6.52822089	     10.12995787	     -5.82875947	      1.44942406	     -9.27027086	     -0.77262143	     -2.84739367
      1.38300000	      1.42372184	     -0.52137831	      0.81916601	      0.44703868	      0.92779547	      0.29535920	     23.01580054	     -3.17948718	    -15.00087650	    -50.58886294	      4.01733075	      4.80861764	      6.76957904	     -4.98675465	      2.43765046	      1.43452693	     -6.07821677	     10.14861432	     -5.70827434	      1.47705129	     -9.35771057	     -0.62033277	     -3.03331693
      1.38716667	      1.50182590	     -0.59372940	      0.93937770	      0.45196671	      0.92774946	      0.29526656	     23.18356262	     -3.05290211	    -15.12954566	    -49.06899644	      3.98501422	      4.60397962	      6.74697096	     -5.64390576	      2.32344158	      1.49829934	     -5.58998710	     10.21928702	     -5.58367512	      1.51659131	     -9.49472460	     -0.51522212	     -3.27625049
      1.39133333	      1.54337814	     -0.66801004	      1.07150445	      0.45692017	      0.92759815	      0.29517433	     23.36334000	     -2.92329896	    -15.26479390	    -47.49719869	      3.96925088	      4.41676216	      6.72579932	     -6.23676437	      2.20175902	      1.53424235	     -5.15365435	     10.25620805	     -5.45887552	      1.54958362	     -9.56246300	     -0.39740126	     -3.47075015
      1.39550000	      1.58646965	     -0.72201469	      1.18925045	      0.46188042	      0.92737274	      0.29509996	     23.53233292	     -2.80739644	    -15.37091556	    -45.90228594	      3.92026571	      4.19797032	      6.70123468	     -6.83779604	      2.10347281	      1.57161236	     -4.70860452	     10.31764957	     -5.32464706	      1.58470847	     -9.64234549	     -0.31145283	     -3.67952975
      1.39966667	      1.61354421	     -0.76328425	      1.30162578	      0.46685697	      0.92705687	      0.29504526	     23.70265888	     -2.69677816	    -15.45558531	    -44.27577317	      3.85630231	      3.96454408	      6.67432574	     -7.41641268	      2.01785912	      1.60718962	     -4.27892066	     10.38763831	     -5.19269454	      1.62086173	     -9.69898092	     -0.23745116	     -3.88345501
